<svg xmlns="http://www.w3.org/2000/svg" viewBox="0 0 142.36 142.37"><defs><style>.cls-1,.cls-2{fill:#fff;}.cls-2{fill-rule:evenodd;}</style></defs><g id="Calque_2" data-name="Calque 2"><g id="Calque_1-2" data-name="Calque 1"><path d="M71.18,0a71.19,71.19,0,1,0,71.18,71.18A71.18,71.18,0,0,0,71.18,0Z"/><path class="cls-1" d="M76.31,60.09A37.92,37.92,0,0,1,77.79,71a40.79,40.79,0,0,1-.53,6.67c4.6,2.17,8.31,4,8.31,7.13,0,2.74-1.86,4.33-5.48,4.33a8.94,8.94,0,0,1-5.75-2.21,26.84,26.84,0,0,1-10,11,21.42,21.42,0,0,0,14.87,5.39c13.53,0,21.67-8.22,21.67-19.63C100.87,67.2,81.48,65.68,76.31,60.09Zm4-21.05C73.84,39,68.58,41,65,44.51A26.78,26.78,0,0,1,75.08,56.65C75.34,54.53,77.2,53,79.91,53c4.69,0,6.54,3.36,7.78,6.1l12.56-5.75C98.66,48.67,93.53,39,80.26,39Z"/><path class="cls-2" d="M61.82,71c0,12.22-6.81,18.41-17.13,18.41H41.52V52.54h3.17C55,52.54,61.82,58.72,61.82,71Z"/></g></g></svg>